<svg width="23" height="23" viewBox="0 0 23 23" fill="none" xmlns="http://www.w3.org/2000/svg">
<circle cx="11.6605" cy="11.0884" r="11" fill="#C4C4C4"/>
<path d="M11.6605 6.52844C10.719 6.52844 9.7749 6.88903 9.05683 7.61662C8.49962 8.18128 8.16763 8.88777 8.04264 9.62026C6.61682 9.85494 5.52417 11.0997 5.52417 12.6084C5.52417 14.2841 6.87056 15.6484 8.52417 15.6484H15.206C16.6366 15.6484 17.7969 14.4727 17.7969 13.023C17.7969 11.6116 16.695 10.4705 15.3168 10.4105C15.3567 9.40497 15.016 8.38277 14.26 7.61662C13.5424 6.88944 12.6021 6.52844 11.6605 6.52844ZM11.6605 7.08117C12.4639 7.08117 13.2628 7.3877 13.8764 8.00958C14.5857 8.72833 14.8819 9.7044 14.7713 10.6394C14.7665 10.6784 14.7699 10.7181 14.7814 10.7557C14.7929 10.7934 14.8123 10.8281 14.8381 10.8575C14.8639 10.8869 14.8956 10.9105 14.9312 10.9265C14.9667 10.9425 15.0052 10.9506 15.0441 10.9503H15.206C16.3439 10.9503 17.2514 11.8699 17.2514 13.023C17.2514 14.1761 16.3439 15.0957 15.206 15.0957H8.52417C7.16535 15.0957 6.06962 13.9854 6.06962 12.6084C6.06962 11.3082 7.04716 10.2449 8.29832 10.1298C8.36064 10.1243 8.4192 10.0973 8.46419 10.0533C8.50918 10.0093 8.53788 9.9509 8.54547 9.88799C8.62415 9.20119 8.91964 8.53724 9.44037 8.00958C10.0537 7.38811 10.8571 7.08117 11.6605 7.08117ZM11.6605 9.84481C11.5099 9.84481 11.3878 9.96854 11.3878 10.1212V13.0921L10.3438 12.1291C10.2379 12.0312 10.0522 12.0387 9.95599 12.1464C9.85977 12.2541 9.86521 12.4405 9.97729 12.5394L11.4773 13.9212C11.5163 13.9573 11.5876 13.9889 11.6605 13.9903C11.7329 13.9903 11.7837 13.9767 11.8438 13.9212L13.3438 12.5394C13.4505 12.4423 13.4701 12.253 13.3651 12.1464C13.2638 12.0436 13.0832 12.0312 12.9773 12.1291L11.9333 13.0921V10.1212C11.9333 9.96854 11.8112 9.84481 11.6605 9.84481Z" fill="white" stroke="white" stroke-width="0.5"/>
</svg>
